<?xml version="1.0" standalone="no"?>
<!DOCTYPE svg PUBLIC "-//W3C//DTD SVG 20010904//EN"
 "http://www.w3.org/TR/2001/REC-SVG-20010904/DTD/svg10.dtd">
<svg version="1.0" xmlns="http://www.w3.org/2000/svg"
 width="1024.000000pt" height="1024.000000pt" viewBox="0 0 1024.000000 1024.000000"
 preserveAspectRatio="xMidYMid meet">

<g transform="translate(0.000000,1024.000000) scale(0.100000,-0.100000)"
fill="#000000" stroke="none">
<path d="M5056 7919 c-20 -16 -26 -29 -26 -60 0 -76 75 -114 134 -68 21 16 26
29 26 64 0 35 -5 48 -26 64 -15 12 -39 21 -54 21 -15 0 -39 -9 -54 -21z"/>
<path d="M5613 7895 c-17 -7 -35 -25 -42 -42 -35 -85 66 -161 133 -100 24 21
30 38 27 83 -3 50 -64 81 -118 59z"/>
<path d="M4535 7878 c-33 -17 -45 -40 -45 -80 0 -96 126 -112 161 -20 13 33
-13 90 -46 102 -33 12 -45 12 -70 -2z"/>
<path d="M6075 7745 c-52 -51 -14 -144 58 -145 40 0 87 49 87 90 0 44 -39 80
-85 80 -25 0 -44 -8 -60 -25z"/>
<path d="M4012 7697 c-45 -48 -12 -147 48 -147 29 0 76 26 84 45 13 34 6 85
-14 105 -29 29 -90 27 -118 -3z"/>
<path d="M6563 7533 c-49 -9 -77 -78 -51 -126 28 -53 79 -61 127 -21 70 59 15
164 -76 147z"/>
<path d="M3608 7495 c-54 -30 -52 -125 3 -152 36 -19 65 -16 96 11 22 19 28
32 28 65 0 69 -67 109 -127 76z"/>
<path d="M4940 7384 c-377 -33 -669 -112 -970 -263 -205 -103 -321 -181 -485
-322 -495 -427 -798 -960 -886 -1554 -10 -71 -19 -151 -19 -177 0 -46 0 -46
-44 -61 -97 -33 -210 -123 -282 -223 -95 -133 -130 -266 -121 -459 10 -211 75
-356 224 -496 120 -113 244 -159 430 -159 l112 0 28 -47 c15 -27 52 -86 84
-133 330 -495 759 -819 1324 -1000 138 -44 346 -93 355 -83 16 18 151 225 148
227 -2 1 -39 8 -83 15 -349 56 -686 195 -1000 415 -109 76 -286 246 -391 376
-72 90 -144 190 -144 202 0 4 14 8 30 8 65 0 188 33 269 72 187 89 310 280
311 481 0 32 4 47 13 47 7 0 54 14 105 30 51 17 95 30 97 30 1 0 40 -55 86
-122 45 -68 129 -191 186 -275 56 -83 103 -154 103 -157 0 -3 -26 -24 -57 -47
-32 -23 -60 -43 -62 -45 -2 -2 54 -80 124 -174 70 -95 137 -187 149 -205 l23
-33 63 63 63 64 -28 38 c-16 21 -78 100 -139 176 -61 78 -105 142 -99 145 5 4
40 27 77 51 l66 44 -23 31 c-53 69 -287 416 -287 424 0 5 24 34 53 64 28 30
92 97 142 149 49 52 152 159 227 238 76 79 138 147 138 152 0 12 -209 236
-226 243 -9 3 -79 -14 -157 -38 -78 -25 -203 -63 -277 -86 -74 -22 -161 -49
-192 -59 l-58 -19 0 21 c1 60 82 173 149 206 20 10 104 40 186 67 108 34 157
55 175 74 14 14 81 83 148 153 l124 128 -83 122 c-108 160 -113 166 -119 167
-3 0 -32 -25 -65 -55 -33 -30 -63 -54 -67 -55 -11 0 -10 -19 2 -33 6 -7 32
-41 57 -75 l46 -64 -79 -74 c-64 -60 -89 -77 -134 -90 -128 -36 -268 -88 -310
-114 -135 -88 -226 -226 -246 -379 -7 -58 -8 -58 -101 -81 l-51 -13 -64 57
c-34 32 -94 73 -133 92 -102 50 -182 64 -377 64 l-168 0 0 44 c0 79 41 286 82
415 121 380 311 687 608 982 295 292 605 470 992 568 251 65 348 76 628 75
199 0 271 -4 384 -22 76 -12 142 -24 145 -28 3 -3 -5 -13 -18 -22 -13 -9 -68
-49 -123 -89 l-99 -74 60 -67 c33 -37 96 -103 140 -147 45 -44 81 -83 81 -87
0 -4 -49 -51 -110 -104 -60 -54 -110 -102 -110 -107 0 -12 191 -374 322 -609
l59 -107 -37 -33 c-87 -75 -99 -87 -94 -90 3 -3 77 -31 165 -63 88 -32 178
-66 200 -75 90 -38 152 -121 162 -215 6 -54 -1 -67 -24 -44 -13 13 -56 30
-242 95 -68 24 -173 62 -233 84 l-109 40 -41 -37 c-123 -111 -152 -169 -152
-303 0 -75 3 -93 32 -151 34 -71 103 -144 168 -177 21 -11 73 -29 115 -40 103
-29 191 -62 187 -72 -2 -5 -158 -167 -348 -361 -190 -193 -351 -360 -358 -370
-10 -15 -2 -41 54 -176 173 -409 174 -414 159 -442 -7 -14 -84 -127 -169 -251
-85 -124 -156 -228 -156 -232 0 -3 42 -40 94 -82 52 -42 145 -121 208 -176
130 -115 98 -109 305 -59 435 105 806 304 1117 599 166 157 359 408 467 607
l34 63 56 0 c79 0 201 34 278 77 209 116 344 365 346 633 0 89 -4 118 -29 193
-50 153 -146 273 -278 347 l-63 36 -12 114 c-29 293 -87 510 -206 778 -191
427 -513 802 -922 1075 -338 224 -671 352 -1050 402 -116 15 -463 27 -555 19z
m1060 -410 c160 -65 363 -182 516 -298 503 -379 843 -954 910 -1538 4 -37 3
-58 -4 -58 -6 0 -47 16 -92 35 -138 59 -216 79 -310 79 -136 0 -266 -49 -359
-134 l-44 -41 -63 23 -63 23 -6 55 c-17 163 -54 256 -141 349 -63 69 -127 112
-201 136 -61 19 -33 -26 -276 432 l-155 292 142 135 141 135 -132 126 c-73 70
-133 131 -133 135 0 8 188 139 201 140 3 0 34 -12 69 -26z m-160 -1873 c58
-22 168 -63 245 -91 77 -29 253 -94 390 -145 138 -51 297 -110 355 -130 132
-47 152 -57 184 -95 39 -47 52 -101 36 -153 -8 -23 -15 -45 -17 -49 -2 -3 -43
9 -91 27 -48 19 -217 81 -377 139 -159 58 -411 150 -560 205 -298 111 -325
128 -325 197 0 34 36 134 49 134 3 0 53 -18 111 -39z m1466 -172 c369 -130
402 -147 468 -238 87 -118 104 -227 61 -386 -53 -197 -124 -297 -252 -358 -61
-29 -77 -32 -158 -31 -89 0 -91 1 -325 93 -298 117 -338 135 -378 174 -29 28
-72 118 -72 152 0 15 34 4 233 -76 65 -26 106 -37 122 -33 17 4 73 -12 177
-51 170 -64 234 -75 291 -52 89 38 138 97 176 216 27 83 26 124 -3 187 -39 83
-94 117 -315 189 -118 38 -153 54 -189 85 -38 34 -178 100 -212 100 -6 0 -8 4
-5 10 3 5 0 7 -8 4 -8 -3 -29 1 -47 8 l-33 14 27 18 c48 31 99 45 172 45 63 1
92 -7 270 -70z m-2696 -81 c11 -21 21 -59 23 -84 l2 -47 -95 -29 c-52 -16
-176 -54 -275 -84 -99 -31 -234 -71 -300 -90 -66 -19 -169 -50 -230 -69 -60
-18 -126 -38 -145 -43 -84 -24 -418 -122 -432 -127 -24 -9 -41 78 -26 131 13
50 80 116 138 137 25 9 241 73 480 142 471 137 792 234 800 241 6 7 36 -33 60
-78z m-1564 13 c146 -6 165 -9 215 -34 31 -15 63 -35 73 -45 16 -18 13 -20
-66 -41 -46 -12 -108 -36 -138 -52 l-55 -31 -182 2 c-164 1 -185 -1 -221 -19
-93 -48 -138 -142 -130 -275 8 -115 25 -163 78 -217 56 -58 82 -65 270 -73 80
-4 185 -12 233 -18 107 -14 158 -4 228 47 25 19 56 35 67 35 11 0 49 9 84 20
34 11 73 20 84 20 20 0 21 -3 12 -42 -24 -107 -113 -208 -223 -252 -108 -43
-167 -49 -331 -31 -81 8 -176 15 -213 15 -154 0 -256 36 -346 121 -109 103
-148 246 -127 467 15 166 68 267 180 344 102 70 144 75 508 59z m4374 -399 c0
-18 -40 -133 -51 -146 -4 -4 -36 5 -71 20 -34 15 -64 28 -65 28 -1 1 7 26 17
56 11 30 19 69 20 86 l0 32 75 -31 c47 -18 75 -35 75 -45z m-1141 13 c63 -25
120 -45 128 -45 9 0 13 -14 13 -45 0 -120 55 -249 145 -341 33 -34 79 -71 103
-83 49 -25 426 -171 442 -171 21 0 8 -30 -57 -126 -148 -220 -254 -344 -440
-509 -95 -85 -304 -230 -409 -283 -201 -102 -443 -180 -690 -221 -155 -27
-208 -28 -202 -3 3 9 87 139 186 289 100 150 182 277 182 283 0 5 -48 137
-106 292 -94 253 -104 285 -92 304 7 12 164 175 348 362 184 188 335 341 335
341 0 1 51 -19 114 -44z m-3408 -1 l44 -6 0 -99 0 -99 -62 0 -63 0 0 105 c0
118 -6 111 81 99z"/>
<path d="M3199 7211 c-46 -46 -37 -106 21 -136 40 -21 54 -19 89 11 23 19 31
34 31 59 0 47 -8 64 -41 80 -42 22 -67 18 -100 -14z"/>
<path d="M6935 7185 c-52 -51 -16 -145 55 -145 22 0 41 10 62 30 26 27 30 36
25 68 -12 70 -92 97 -142 47z"/>
<path d="M7406 6695 c-54 -50 -25 -132 51 -142 56 -7 93 27 93 85 0 76 -86
111 -144 57z"/>
<path d="M2725 6675 c-54 -53 -16 -145 60 -145 86 0 119 117 44 155 -41 22
-77 18 -104 -10z"/>
<path d="M7723 6282 c-59 -9 -83 -103 -38 -147 34 -35 78 -33 116 4 64 64 13
157 -78 143z"/>
<path d="M2441 6254 c-70 -90 50 -200 123 -113 30 36 33 65 9 99 -24 35 -33
40 -75 40 -28 0 -42 -6 -57 -26z"/>
<path d="M5308 5982 c-87 -31 -158 -61 -158 -65 0 -11 120 -269 130 -280 7 -8
296 95 313 112 8 8 -112 292 -123 290 -3 0 -76 -26 -162 -57z"/>
<path d="M7922 5654 c-32 -13 -52 -46 -52 -84 0 -28 41 -69 76 -76 36 -7 89
31 96 70 4 20 -14 86 -24 86 -2 0 -17 4 -34 9 -21 6 -41 4 -62 -5z"/>
<path d="M2235 5635 c-35 -34 -33 -78 4 -116 33 -32 58 -36 100 -14 76 39 43
155 -44 155 -25 0 -44 -8 -60 -25z"/>
<path d="M4764 4377 c-44 -34 -98 -76 -118 -92 l-38 -31 108 -143 c140 -184
131 -174 143 -170 20 7 230 184 230 194 0 6 -11 24 -25 40 -14 17 -68 83 -120
148 -52 64 -96 117 -97 117 -1 0 -38 -29 -83 -63z"/>
</g>
</svg>
